<svg xmlns="http://www.w3.org/2000/svg" width="1000" height="1000"><rect width="1000" height="1000" rx="200" ry="200" fill="#ff001b"/><svg xmlns="http://www.w3.org/2000/svg" xmlns:xlink="http://www.w3.org/1999/xlink" xmlns:svgjs="http://svgjs.com/svgjs" width="24" height="24" transform="matrix(33.33333 0 0 33.33333 100 100)"><svg width="24" height="24" viewBox="0 0 24 24" fill="none" xmlns="http://www.w3.org/2000/svg"><path fill-rule="evenodd" clip-rule="evenodd" d="M2.816.03C1.402.267.27 1.394.043 2.792c-.057.353-.057 18.045 0 18.399.226 1.39 1.374 2.539 2.763 2.765.354.057 18.034.057 18.388 0 1.389-.226 2.537-1.375 2.763-2.765.057-.354.057-18.046 0-18.4C23.753 1.538 22.844.516 21.58.12l-.36-.113L12.12.001C7.116-.003 2.93.01 2.816.029Zm2.705 3.658V5.55l-1.83-.01-1.83-.01-.01-1.08c-.017-1.496.029-1.73.413-2.14.216-.232.499-.39.781-.437.12-.02.725-.038 1.346-.04l1.13-.005v1.861ZM16.599 6.45v4.622H7.401V1.827h9.198v4.622Zm4.315-4.58c.315.05.521.154.763.38.248.232.389.502.442.841.024.16.037.732.03 1.359l-.01 1.08-1.83.01-1.83.01V1.827h1.09c.6 0 1.205.019 1.345.042ZM5.521 9.231v1.84H1.84v-3.68h3.68v1.84Zm16.638 0v1.84h-3.68v-3.68h3.68v1.84ZM5.521 14.774v1.862l-1.83-.011-1.83-.01-.01-1.851-.011-1.851h3.68v1.861Zm11.078 2.761v4.623H7.401v-9.245h9.198v4.622Zm5.55-2.771-.01 1.85-1.83.01-1.83.012v-3.723h3.681l-.011 1.85ZM5.521 20.316v1.842l-1.15-.001c-1.245 0-1.464-.027-1.778-.21a1.78 1.78 0 0 1-.587-.621c-.132-.258-.164-.605-.164-1.76l-.001-1.09h3.68v1.84Zm16.637-.75c0 1.155-.032 1.502-.164 1.76a1.78 1.78 0 0 1-.587.62c-.314.184-.533.21-1.778.211h-1.15v-3.681h3.68v1.09Z" fill="#fff"/></svg></svg></svg>