<svg aria-hidden="true" style="width:0;height:0;position:absolute;overflow:hidden" xmlns="http://www.w3.org/2000/svg"><defs><symbol id="icon-filmoteka-logo" viewBox="0 0 31 32"><path d="M3.603.057C1.792.363.343 1.805.053 3.594c-.073.453-.073 23.098 0 23.551.289 1.779 1.759 3.25 3.537 3.539.452.073 23.083.073 23.536 0 1.778-.29 3.248-1.76 3.537-3.539.073-.453.073-23.098 0-23.551-.261-1.607-1.425-2.915-3.044-3.422l-.461-.144L15.512.021C9.106.016 3.748.033 3.603.058zm3.462 4.684v2.382l-4.684-.026-.014-1.383c-.02-1.914.038-2.214.529-2.739a1.813 1.813 0 0 1 1.001-.559c.152-.025.927-.048 1.722-.052l1.446-.006v2.383zm14.18 3.534v5.917H9.471V2.358h11.774v5.917zm5.523-5.863c.403.065.668.197.977.487.317.297.497.642.565 1.076.032.206.048.937.04 1.739l-.014 1.383-4.684.026V2.358l1.395.001c.767 0 1.542.024 1.721.053zM7.065 11.835v2.356h-4.71V9.479h4.71v2.356zm21.297 0v2.356h-4.71V9.479h4.71v2.356zM7.065 18.931v2.383l-4.684-.027-.013-2.369-.014-2.369h4.711v2.382zm14.18 3.534v5.917H9.471V16.549h11.774v5.917zm7.104-3.547-.013 2.369-4.684.027v-4.765h4.711l-.014 2.369zM7.065 26.025v2.357l-1.472-.001c-1.594-.001-1.874-.034-2.275-.269a2.284 2.284 0 0 1-.751-.794c-.169-.33-.21-.774-.21-2.252l-.001-1.396h4.71v2.356zm21.296-.96c0 1.478-.041 1.922-.21 2.252-.182.322-.44.595-.752.794-.402.235-.682.268-2.275.269l-1.472.001v-4.713h4.71l-.001 1.396z"/></symbol><symbol id="icon-search" viewBox="0 0 32 32"><path d="M13.787 2.699c-1.752.181-3 .52-4.373 1.192C6.993 5.072 5.121 6.936 3.918 9.36a11.886 11.886 0 0 0 0 10.613c.621 1.251 1.277 2.171 2.245 3.141 3.637 3.656 9.149 4.589 13.757 2.331a12.93 12.93 0 0 0 1.997-1.216l.237-.179 2.563 2.555c1.76 1.755 2.637 2.595 2.8 2.675.469.235.955.117 1.419-.344.461-.464.579-.949.344-1.419-.08-.163-.92-1.04-2.675-2.8l-2.555-2.563.179-.237a12.93 12.93 0 0 0 1.216-1.997 11.939 11.939 0 0 0 0-10.507 11.992 11.992 0 0 0-9.019-6.611c-.544-.083-2.211-.149-2.64-.104zm2.349 2.765c3.997.605 7.187 3.848 7.763 7.896.088.616.088 1.997 0 2.613-.584 4.088-3.731 7.259-7.872 7.928-.549.088-2.171.088-2.72 0-4.141-.669-7.285-3.835-7.872-7.928-.088-.616-.088-2.056 0-2.64.525-3.437 2.832-6.269 6.059-7.432.84-.301 1.459-.432 2.56-.536.363-.035 1.581.021 2.083.099z"/></symbol></defs></svg>