<svg xmlns="http://www.w3.org/2000/svg" version="1.1" xmlns:xlink="http://www.w3.org/1999/xlink" xmlns:svgjs="http://svgjs.com/svgjs" width="1000" height="1000"><rect width="1000" height="1000" rx="200" ry="200" fill="#ff001b"></rect><g transform="matrix(33.333333333333336,0,0,33.333333333333336,99.99999927729363,99.99999999623589)"><svg xmlns="http://www.w3.org/2000/svg" version="1.1" xmlns:xlink="http://www.w3.org/1999/xlink" xmlns:svgjs="http://svgjs.com/svgjs" width="24" height="24"><svg width="24" height="24" viewBox="0 0 24 24" fill="none" xmlns="http://www.w3.org/2000/svg">
<path fill-rule="evenodd" clip-rule="evenodd" d="M2.81644 0.029261C1.40153 0.268465 0.269969 1.39522 0.0429181 2.79258C-0.014306 3.1463 -0.014306 20.8382 0.0429181 21.1919C0.269046 22.5819 1.41722 23.7308 2.80629 23.9571C3.15979 24.0143 20.8402 24.0143 21.1937 23.9571C22.5828 23.7308 23.731 22.5819 23.9571 21.1919C24.0143 20.8382 24.0143 3.1463 23.9571 2.79258C23.7531 1.53745 22.844 0.515058 21.5786 0.118847L21.2186 0.00617182L12.12 0.00063041C7.11564 -0.00306386 2.92905 0.00986608 2.81644 0.029261ZM5.52075 3.68844V5.54943L3.69142 5.53927L1.86117 5.52911L1.85009 4.44853C1.8344 2.95328 1.87963 2.71869 2.26358 2.30863C2.48048 2.07681 2.76291 1.91888 3.04534 1.87178C3.1644 1.85238 3.76987 1.83391 4.39103 1.83114L5.52075 1.82652V3.68844ZM16.5992 6.44898V11.0714H7.40084V1.82652H16.5992V6.44898ZM20.914 1.86901C21.2288 1.9198 21.4355 2.02324 21.6773 2.24952C21.9247 2.48133 22.0659 2.75102 22.1185 3.08996C22.1434 3.25067 22.1564 3.82235 22.1499 4.44853L22.1388 5.52911L20.3095 5.53927L18.4793 5.54943V1.82652L19.5693 1.82745C20.1683 1.82745 20.7738 1.84592 20.914 1.86901ZM5.52075 9.23077V11.0714H1.84086V7.3901H5.52075V9.23077ZM22.1591 9.23077V11.0714H18.4793V7.3901H22.1591V9.23077ZM5.52075 14.774V16.6359L3.69142 16.6248L1.86117 16.6147L1.85102 14.7639L1.83994 12.913H5.52075V14.774ZM16.5992 17.5355V22.1579H7.40084V12.913H16.5992V17.5355ZM22.149 14.7639L22.1388 16.6147L20.3095 16.6248L18.4793 16.6359V12.913H22.1601L22.149 14.7639ZM5.52075 20.3163V22.1579L4.37073 22.157C3.12564 22.1561 2.9069 22.1302 2.59309 21.9464C2.35002 21.7903 2.14856 21.5773 2.00608 21.3258C1.87409 21.0681 1.84179 20.7209 1.84179 19.5664L1.84086 18.4757H5.52075V20.3163ZM22.1582 19.5664C22.1582 20.7209 22.1259 21.0681 21.9939 21.3258C21.8514 21.5773 21.65 21.7903 21.4069 21.9464C21.0931 22.1302 20.8744 22.1561 19.6293 22.157L18.4793 22.1579V18.4757H22.1591L22.1582 19.5664Z" fill="white"></path>
</svg></svg></g></svg>