<svg width="24" height="25" viewBox="0 0 24 25" fill="none" xmlns="http://www.w3.org/2000/svg">
<path fill-rule="evenodd" clip-rule="evenodd" d="M2.81498 0.044886C1.40007 0.28409 0.268504 1.41084 0.0414533 2.8082C-0.0157709 3.16193 -0.0157709 20.8538 0.0414533 21.2075C0.267581 22.5975 1.41576 23.7464 2.80483 23.9727C3.15832 24.0299 20.8387 24.0299 21.1922 23.9727C22.5813 23.7464 23.7295 22.5975 23.9556 21.2075C24.0128 20.8538 24.0128 3.16193 23.9556 2.8082C23.7516 1.55307 22.8425 0.530683 21.5771 0.134472L21.2172 0.0217968L12.1185 0.0162554C7.11418 0.0125611 2.92758 0.0254911 2.81498 0.044886ZM5.51928 3.70406V5.56505L3.68996 5.55489L1.8597 5.54473L1.84863 4.46416C1.83294 2.9689 1.87816 2.73432 2.26212 2.32425C2.47902 2.09244 2.76145 1.93451 3.04388 1.8874C3.16294 1.86801 3.76841 1.84954 4.38957 1.84677L5.51928 1.84215V3.70406ZM16.5977 6.46461V11.0871H7.39937V1.84215H16.5977V6.46461ZM20.9126 1.88463C21.2273 1.93543 21.4341 2.03887 21.6759 2.26514C21.9232 2.49696 22.0644 2.76664 22.1171 3.10559C22.142 3.26629 22.1549 3.83798 22.1484 4.46416L22.1374 5.54473L20.308 5.55489L18.4778 5.56505V1.84215L19.5678 1.84307C20.1668 1.84307 20.7723 1.86154 20.9126 1.88463ZM5.51928 9.24639V11.0871H1.8394V7.40572H5.51928V9.24639ZM22.1577 9.24639V11.0871H18.4778V7.40572H22.1577V9.24639ZM5.51928 14.7896V16.6516L3.68996 16.6405L1.8597 16.6303L1.84955 14.7795L1.83848 12.9287H5.51928V14.7896ZM16.5977 17.5511V22.1736H7.39937V12.9287H16.5977V17.5511ZM22.1475 14.7795L22.1374 16.6303L20.308 16.6405L18.4778 16.6516V12.9287H22.1586L22.1475 14.7795ZM5.51928 20.332V22.1736L4.36926 22.1726C3.12417 22.1717 2.90543 22.1459 2.59162 21.9621C2.34856 21.8059 2.1471 21.5929 2.00461 21.3414C1.87263 21.0838 1.84032 20.7365 1.84032 19.582L1.8394 18.4913H5.51928V20.332ZM22.1567 19.582C22.1567 20.7365 22.1244 21.0838 21.9925 21.3414C21.85 21.5929 21.6485 21.8059 21.4054 21.9621C21.0916 22.1459 20.8729 22.1717 19.6278 22.1726L18.4778 22.1736V18.4913H22.1577L22.1567 19.582Z" fill="black"/>
</svg>
