<svg aria-hidden="true" style="position: absolute; width: 0; height: 0; overflow: hidden;" version="1.1" xmlns="http://www.w3.org/2000/svg" xmlns:xlink="http://www.w3.org/1999/xlink">
  <defs>
    <symbol id="icon-filmoteka-logo" viewBox="0 0 31 32">
      <path d="M3.603 0.057c-1.811 0.306-3.26 1.748-3.55 3.537-0.073 0.453-0.073 23.098 0 23.551 0.289 1.779 1.759 3.25 3.537 3.539 0.452 0.073 23.083 0.073 23.536 0 1.778-0.29 3.248-1.76 3.537-3.539 0.073-0.453 0.073-23.098 0-23.551-0.261-1.607-1.425-2.915-3.044-3.422l-0.461-0.144-11.646-0.007c-6.406-0.005-11.764 0.012-11.909 0.037zM7.065 4.741v2.382l-4.684-0.026-0.014-1.383c-0.020-1.914 0.038-2.214 0.529-2.739 0.278-0.297 0.639-0.499 1.001-0.559 0.152-0.025 0.927-0.048 1.722-0.052l1.446-0.006v2.383zM21.245 8.275v5.917h-11.774v-11.834h11.774v5.917zM26.768 2.412c0.403 0.065 0.668 0.197 0.977 0.487 0.317 0.297 0.497 0.642 0.565 1.076 0.032 0.206 0.048 0.937 0.040 1.739l-0.014 1.383-4.684 0.026v-4.765l1.395 0.001c0.767 0 1.542 0.024 1.721 0.053zM7.065 11.835v2.356h-4.71v-4.712h4.71v2.356zM28.362 11.835v2.356h-4.71v-4.712h4.71v2.356zM7.065 18.931v2.383l-4.684-0.027-0.013-2.369-0.014-2.369h4.711v2.382zM21.245 22.465v5.917h-11.774v-11.833h11.774v5.917zM28.349 18.918l-0.013 2.369-4.684 0.027v-4.765h4.711l-0.014 2.369zM7.065 26.025v2.357l-1.472-0.001c-1.594-0.001-1.874-0.034-2.275-0.269-0.311-0.2-0.569-0.473-0.751-0.794-0.169-0.33-0.21-0.774-0.21-2.252l-0.001-1.396h4.71v2.356zM28.361 25.065c0 1.478-0.041 1.922-0.21 2.252-0.182 0.322-0.44 0.595-0.752 0.794-0.402 0.235-0.682 0.268-2.275 0.269l-1.472 0.001v-4.713h4.71l-0.001 1.396z"></path>
    </symbol>

    <symbol id="icon-search" viewBox="0 0 32 32">
      <path d="M13.787 2.699c-1.752 0.181-3 0.52-4.373 1.192-2.421 1.181-4.293 3.045-5.496 5.469-1.667 3.363-1.667 7.251 0 10.613 0.621 1.251 1.277 2.171 2.245 3.141 3.637 3.656 9.149 4.589 13.757 2.331 0.704-0.347 1.464-0.808 1.997-1.216l0.237-0.179 2.563 2.555c1.76 1.755 2.637 2.595 2.8 2.675 0.469 0.235 0.955 0.117 1.419-0.344 0.461-0.464 0.579-0.949 0.344-1.419-0.080-0.163-0.92-1.040-2.675-2.8l-2.555-2.563 0.179-0.237c0.408-0.533 0.869-1.293 1.216-1.997 1.624-3.315 1.624-7.189 0-10.507-1.749-3.568-5.091-6.019-9.019-6.611-0.544-0.083-2.211-0.149-2.64-0.104zM16.136 5.464c3.997 0.605 7.187 3.848 7.763 7.896 0.088 0.616 0.088 1.997 0 2.613-0.584 4.088-3.731 7.259-7.872 7.928-0.549 0.088-2.171 0.088-2.72 0-4.141-0.669-7.285-3.835-7.872-7.928-0.088-0.616-0.088-2.056 0-2.64 0.525-3.437 2.832-6.269 6.059-7.432 0.84-0.301 1.459-0.432 2.56-0.536 0.363-0.035 1.581 0.021 2.083 0.099z"></path>
    </symbol>

    <symbol id="icon-arrow-left" viewBox="0 0 32 32">
      <path d="M6.391 14.232c-0.521 0.607-0.521 1.593 0 2.2l6.665 7.772c0.521 0.607 1.366 0.607 1.887 0s0.521-1.593 0-2.2l-4.395-5.12h12.779c0.737 0 1.333-0.695 1.333-1.554s-0.596-1.554-1.333-1.554h-12.775l4.386-5.12c0.521-0.607 0.521-1.593 0-2.2s-1.366-0.607-1.887 0l-6.665 7.772 0.004 0.005z"></path>
    </symbol>

    <symbol id="icon-arrow-right" viewBox="0 0 32 32">
      <path d="M24.269 16.428c0.521-0.607 0.521-1.593 0-2.2l-6.665-7.772c-0.521-0.607-1.366-0.607-1.887 0s-0.521 1.593 0 2.2l4.394 5.12h-12.779c-0.737 0-1.333 0.695-1.333 1.554s0.596 1.554 1.333 1.554h12.775l-4.386 5.12c-0.521 0.607-0.521 1.593 0 2.2s1.366 0.607 1.887 0l6.665-7.772-0.004-0.005z"></path>
    </symbol>

    <symbol id="icon-close-btn" viewBox="0 0 32 32"><path d="m17.253 15.752 7.371-7.32a.88.88 0 0 0-.639-1.456h-.001l-.035-.001a.89.89 0 0 0-.581.215l.001-.001-7.37 7.318-7.37-7.326a.895.895 0 0 0-1.523.627v.001a.88.88 0 0 0 .261.626l7.378 7.318-7.376 7.315a.882.882 0 0 0-.052 1.296.887.887 0 0 0 1.303-.05l.001-.001 7.376-7.317 7.37 7.317a.892.892 0 0 0 1.467-.633v-.002l.001-.033a.882.882 0 0 0-.214-.576l.001.001-7.37-7.317z"/></symbol>
  </defs>
</svg>
