<svg aria-hidden="true" style="position: absolute; width: 0; height: 0; overflow: hidden;" version="1.1" xmlns="http://www.w3.org/2000/svg" xmlns:xlink="http://www.w3.org/1999/xlink">
<defs>
<symbol id="icon-filmoteka-logo" viewBox="0 0 31 32">
<path d="M3.603 0.057c-1.811 0.306-3.26 1.748-3.55 3.537-0.073 0.453-0.073 23.098 0 23.551 0.289 1.779 1.759 3.25 3.537 3.539 0.452 0.073 23.083 0.073 23.536 0 1.778-0.29 3.248-1.76 3.537-3.539 0.073-0.453 0.073-23.098 0-23.551-0.261-1.607-1.425-2.915-3.044-3.422l-0.461-0.144-11.646-0.007c-6.406-0.005-11.764 0.012-11.909 0.037zM7.065 4.741v2.382l-4.684-0.026-0.014-1.383c-0.020-1.914 0.038-2.214 0.529-2.739 0.278-0.297 0.639-0.499 1.001-0.559 0.152-0.025 0.927-0.048 1.722-0.052l1.446-0.006v2.383zM21.245 8.275v5.917h-11.774v-11.834h11.774v5.917zM26.768 2.412c0.403 0.065 0.668 0.197 0.977 0.487 0.317 0.297 0.497 0.642 0.565 1.076 0.032 0.206 0.048 0.937 0.040 1.739l-0.014 1.383-4.684 0.026v-4.765l1.395 0.001c0.767 0 1.542 0.024 1.721 0.053zM7.065 11.835v2.356h-4.71v-4.712h4.71v2.356zM28.362 11.835v2.356h-4.71v-4.712h4.71v2.356zM7.065 18.931v2.383l-4.684-0.027-0.013-2.369-0.014-2.369h4.711v2.382zM21.245 22.465v5.917h-11.774v-11.833h11.774v5.917zM28.349 18.918l-0.013 2.369-4.684 0.027v-4.765h4.711l-0.014 2.369zM7.065 26.025v2.357l-1.472-0.001c-1.594-0.001-1.874-0.034-2.275-0.269-0.311-0.2-0.569-0.473-0.751-0.794-0.169-0.33-0.21-0.774-0.21-2.252l-0.001-1.396h4.71v2.356zM28.361 25.065c0 1.478-0.041 1.922-0.21 2.252-0.182 0.322-0.44 0.595-0.752 0.794-0.402 0.235-0.682 0.268-2.275 0.269l-1.472 0.001v-4.713h4.71l-0.001 1.396z"></path>
</symbol>
</defs>
</svg>
